<svg width="24" height="21" viewBox="0 0 24 21" fill="none" xmlns="http://www.w3.org/2000/svg">
<g clip-path="url(#clip0_6_252)">
<path fill-rule="evenodd" clip-rule="evenodd" d="M15.0699 13.7051C15.2042 13.584 15.3634 13.4882 15.5385 13.423C15.7137 13.3578 15.9013 13.3246 16.0906 13.3253C16.28 13.326 16.4673 13.3605 16.642 13.4269C16.8166 13.4933 16.9752 13.5903 17.1086 13.7123L22.6376 18.7655C22.9071 19.0116 23.0578 19.3447 23.0567 19.6915C23.0556 20.0383 22.9028 20.3704 22.6318 20.6148C22.3607 20.8592 21.9938 20.9957 21.6116 20.9945C21.2294 20.9933 20.8633 20.8543 20.5938 20.6082L15.0648 15.5551C14.9313 15.4332 14.8255 15.2886 14.7536 15.1297C14.6817 14.9707 14.6449 14.8004 14.6456 14.6286C14.6462 14.4568 14.6841 14.2868 14.7571 14.1284C14.8302 13.9699 14.937 13.8261 15.0714 13.7051L15.0699 13.7051Z" fill="#86869E"/>
<path fill-rule="evenodd" clip-rule="evenodd" d="M9.38331 15.7219C10.4239 15.7256 11.455 15.5433 12.4177 15.1853C13.3803 14.8274 14.2557 14.3008 14.9939 13.6357C15.7321 12.9706 16.3186 12.1799 16.7199 11.3089C17.1212 10.4379 17.3295 9.5036 17.3328 8.55931C17.3362 7.61501 17.1345 6.67924 16.7394 5.80542C16.3443 4.93159 15.7634 4.13683 15.0299 3.46651C14.2965 2.79618 13.4248 2.26343 12.4647 1.89866C11.5046 1.53389 10.4748 1.34424 9.43424 1.34056C7.33265 1.33312 5.31445 2.08357 3.82363 3.42682C2.33281 4.77008 1.49148 6.5961 1.48472 8.50319C1.47797 10.4103 2.30635 12.2422 3.78762 13.596C5.26889 14.9498 7.28172 15.7145 9.38331 15.7219ZM18.7736 8.56441C18.7656 10.8182 17.7713 12.9763 16.0094 14.5638C14.2475 16.1512 11.8624 17.0381 9.37868 17.0293C6.89499 17.0205 4.51619 16.1168 2.76559 14.5169C1.015 12.9169 0.0360064 10.7519 0.0439875 8.49809C0.0519687 6.24425 1.04627 4.08623 2.80815 2.49874C4.57003 0.911263 6.95517 0.0243669 9.43887 0.033162C11.9226 0.0419571 14.3014 0.945723 16.052 2.54564C17.8026 4.14556 18.7815 6.31058 18.7736 8.56441Z" fill="#86869E"/>
</g>
<defs>
<clipPath id="clip0_6_252">
<rect width="23" height="20.8714" fill="white" transform="translate(0.0740804) scale(1.00226) rotate(0.202891)"/>
</clipPath>
</defs>
</svg>
