<svg width="40" height="35" viewBox="0 0 40 35" fill="none" xmlns="http://www.w3.org/2000/svg">
<path d="M33.3333 26.7314C33.3333 31.5277 25.7241 32.0834 20 32.0834C19.423 32.0834 18.8545 32.0761 18.296 32.0615C17.6319 32.0469 17.1086 31.5642 17.1287 30.9853C17.1472 30.4078 17.7207 29.9732 18.3648 29.9688C18.9015 29.9819 19.4465 29.9878 20 29.9878C27.2486 29.9878 30.9249 28.8926 30.9249 26.7314C30.9249 24.5498 27.2486 23.4429 20 23.4429C12.7514 23.4429 9.07504 24.5396 9.07504 26.7022C9.07504 27.4095 9.36351 28.4347 11.8675 29.1726C12.4981 29.3578 12.8352 29.9513 12.6222 30.4982C12.4075 31.045 11.7266 31.344 11.0943 31.1544C7.43479 30.0767 6.66666 28.1387 6.66666 26.7022C6.66666 22.0024 13.9685 21.3733 19.6473 21.3496L20.6347 21.3499C24.4219 21.3667 33.3333 21.6594 33.3333 26.7314ZM20 2.91669C24.9509 2.91669 28.9778 6.41952 28.9778 10.7244C28.9778 15.0278 24.9509 18.5307 20 18.5307C15.049 18.5307 11.0205 15.0278 11.0205 10.7244C11.0205 6.41952 15.049 2.91669 20 2.91669ZM20 5.01226C16.3773 5.01226 13.4306 7.57449 13.4306 10.7244C13.4306 13.8729 16.3773 16.4351 20 16.4351C23.6226 16.4351 26.5694 13.8729 26.5694 10.7244C26.5694 7.57449 23.6226 5.01226 20 5.01226Z" fill="#1F4229"/>
</svg>
