<svg width="40" height="35" viewBox="0 0 40 35" fill="none" xmlns="http://www.w3.org/2000/svg">
<path d="M37.065 17.5601C37.765 17.5601 38.3334 18.0477 38.3334 18.6498C38.3334 19.2504 37.765 19.738 37.065 19.738H35.295V24.9277C35.295 28.0709 32.3167 30.625 28.6567 30.625H26.0017C25.3017 30.625 24.7334 30.1374 24.7334 29.5353C24.7334 28.9347 25.3017 28.447 26.0017 28.447H28.6567C30.9184 28.447 32.7584 26.8697 32.7584 24.9277V19.738H7.24335V24.932C7.24335 26.8683 9.07835 28.4427 11.3334 28.4456L14.0467 28.447C14.7467 28.447 15.315 28.9347 15.315 29.5353C15.3134 30.1374 14.7467 30.625 14.045 30.625L11.3317 30.6236C7.67835 30.6207 4.70502 28.0681 4.70502 24.932V19.738H2.93502C2.23669 19.738 1.66669 19.2504 1.66669 18.6498C1.66669 18.0477 2.23669 17.5601 2.93502 17.5601H37.065ZM23.0985 23.0037C23.7985 23.0037 24.3669 23.4913 24.3669 24.092C24.3669 24.694 23.7985 25.1802 23.0985 25.1802H16.9035C16.2019 25.1802 15.6335 24.694 15.6335 24.092C15.6335 23.4913 16.2019 23.0037 16.9035 23.0037H23.0985ZM14.0462 4.375C14.7462 4.375 15.3145 4.86265 15.3145 5.4647C15.3145 6.06532 14.7479 6.55297 14.0462 6.55297L11.3329 6.5544C9.07785 6.55726 7.24452 8.13174 7.24452 10.0666V12.778C7.24452 13.3786 6.67452 13.8677 5.97452 13.8677C5.27452 13.8677 4.70619 13.3786 4.70619 12.778V10.0666C4.70619 6.93193 7.67785 4.37929 11.3295 4.37643L14.0462 4.375ZM23.098 11.6897C23.7997 11.6897 24.368 12.1774 24.368 12.778C24.368 13.3786 23.7997 13.8677 23.098 13.8677H16.903C16.203 13.8677 15.6347 13.3786 15.6347 12.778C15.6347 12.1774 16.203 11.6897 16.903 11.6897H23.098ZM28.6564 4.376C32.318 4.376 35.2947 6.93007 35.2947 10.0719V12.779C35.2947 13.3782 34.7263 13.8672 34.0264 13.8672C33.3264 13.8672 32.758 13.3782 32.758 12.779V10.0719C32.758 8.13131 30.918 6.55254 28.6564 6.55254H26.0014C25.3014 6.55254 24.733 6.06489 24.733 5.46427C24.733 4.86222 25.3014 4.376 26.0014 4.376H28.6564Z" fill="black"/>
</svg>
