<svg width="18" height="18" viewBox="0 0 18 18" fill="none" xmlns="http://www.w3.org/2000/svg">
<path d="M2.81818 11.575C2.81818 11.4645 2.90772 11.375 3.01818 11.375H4.61818C4.72863 11.375 4.81818 11.4645 4.81818 11.575V15.175C4.81818 15.2855 4.72863 15.375 4.61818 15.375H3.01818C2.90772 15.375 2.81818 15.2855 2.81818 15.175V11.575Z" fill="black"/>
<path d="M5.81818 9.575C5.81818 9.46454 5.90772 9.375 6.01818 9.375H7.61818C7.72863 9.375 7.81818 9.46454 7.81818 9.575V15.175C7.81818 15.2855 7.72863 15.375 7.61818 15.375H6.01818C5.90772 15.375 5.81818 15.2855 5.81818 15.175V9.575Z" fill="black"/>
<path d="M8.81818 6.575C8.81818 6.46454 8.90772 6.375 9.01818 6.375H10.6182C10.7286 6.375 10.8182 6.46454 10.8182 6.575V15.175C10.8182 15.2855 10.7286 15.375 10.6182 15.375H9.01818C8.90772 15.375 8.81818 15.2855 8.81818 15.175V6.575Z" fill="black"/>
<path d="M11.8182 3.575C11.8182 3.46454 11.9077 3.375 12.0182 3.375H13.6182C13.7286 3.375 13.8182 3.46454 13.8182 3.575V15.175C13.8182 15.2855 13.7286 15.375 13.6182 15.375H12.0182C11.9077 15.375 11.8182 15.2855 11.8182 15.175V3.575Z" fill="black"/>
</svg>
