<svg width="18" height="18" viewBox="0 0 18 18" fill="none" xmlns="http://www.w3.org/2000/svg">
<path d="M8.99724 15.4035C8.89352 15.4035 8.65236 15.2116 8.27378 14.8279C7.8952 14.4441 7.7059 14.2 7.7059 14.0956C7.7059 13.9285 7.86797 13.7875 8.1921 13.6726C8.51623 13.5578 8.78461 13.5003 8.99724 13.5003C9.20987 13.5003 9.47825 13.5578 9.80238 13.6726C10.1265 13.7875 10.2886 13.9285 10.2886 14.0956C10.2886 14.2 10.0993 14.4441 9.7207 14.8279C9.34212 15.2116 9.10096 15.4035 8.99724 15.4035ZM11.0976 13.281C11.0872 13.281 10.9835 13.2158 10.7864 13.0852C10.5894 12.9547 10.3262 12.8241 9.99686 12.6936C9.66754 12.5631 9.33434 12.4978 8.99724 12.4978C8.66014 12.4978 8.32694 12.5631 7.99762 12.6936C7.6683 12.8241 7.40641 12.9547 7.21193 13.0852C7.01745 13.2158 6.91243 13.281 6.89687 13.281C6.80352 13.281 6.56107 13.0852 6.16952 12.6936C5.77797 12.302 5.5822 12.0592 5.5822 11.9652C5.5822 11.8974 5.60813 11.8373 5.65999 11.7851C6.0645 11.383 6.57274 11.0672 7.1847 10.8374C7.79666 10.6077 8.40084 10.4928 8.99724 10.4928C9.59364 10.4928 10.1978 10.6077 10.8098 10.8374C11.4217 11.0672 11.93 11.383 12.3345 11.7851C12.3864 11.8373 12.4123 11.8974 12.4123 11.9652C12.4123 12.0592 12.2165 12.302 11.825 12.6936C11.4334 13.0852 11.191 13.281 11.0976 13.281ZM13.2213 11.1507C13.1643 11.1507 13.1046 11.1298 13.0424 11.088C12.3371 10.5398 11.6836 10.1364 11.0821 9.87799C10.4805 9.61953 9.78553 9.4903 8.99724 9.4903C8.55642 9.4903 8.11431 9.54774 7.6709 9.66261C7.22749 9.77748 6.84112 9.91584 6.5118 10.0777C6.18249 10.2396 5.88818 10.4014 5.62887 10.5633C5.36957 10.7252 5.16472 10.8635 5.01432 10.9784C4.86392 11.0933 4.78354 11.1507 4.77317 11.1507C4.685 11.1507 4.44644 10.9549 4.05749 10.5633C3.66853 10.1717 3.47405 9.9289 3.47405 9.83491C3.47405 9.77226 3.49998 9.71482 3.55184 9.66261C4.23641 8.97339 5.06618 8.4382 6.04117 8.05703C7.01615 7.67587 8.00151 7.48529 8.99724 7.48529C9.99297 7.48529 10.9783 7.67587 11.9533 8.05703C12.9283 8.4382 13.7581 8.97339 14.4426 9.66261C14.4945 9.71482 14.5204 9.77226 14.5204 9.83491C14.5204 9.9289 14.326 10.1717 13.937 10.5633C13.548 10.9549 13.3095 11.1507 13.2213 11.1507ZM15.3295 9.02821C15.2724 9.02821 15.2154 9.00471 15.1583 8.95772C14.23 8.13797 13.2667 7.52054 12.2684 7.10544C11.27 6.69034 10.1797 6.48279 8.99724 6.48279C7.81481 6.48279 6.72443 6.69034 5.72611 7.10544C4.72779 7.52054 3.76447 8.13797 2.83616 8.95772C2.77911 9.00471 2.72207 9.02821 2.66502 9.02821C2.57686 9.02821 2.337 8.83241 1.94545 8.44081C1.5539 8.0492 1.35812 7.80641 1.35812 7.71242C1.35812 7.64455 1.38405 7.5845 1.43592 7.53229C2.40571 6.56111 3.55962 5.80923 4.89763 5.27665C6.23565 4.74407 7.60218 4.47778 8.99724 4.47778C10.3923 4.47778 11.7588 4.74407 13.0968 5.27665C14.4349 5.80923 15.5888 6.56111 16.5586 7.53229C16.6104 7.5845 16.6364 7.64455 16.6364 7.71242C16.6364 7.80641 16.4406 8.0492 16.049 8.44081C15.6575 8.83241 15.4176 9.02821 15.3295 9.02821Z" fill="black"/>
</svg>
