<svg width="23" height="12" viewBox="0 0 23 12" fill="none" xmlns="http://www.w3.org/2000/svg">
<path d="M0.0305387 1.43052C0.031887 1.04977 0.18443 0.685162 0.454609 0.41689C0.724788 0.148618 1.09047 -0.00133875 1.47121 9.5129e-06L21.5695 0.0711803C21.9502 0.0725286 22.3148 0.225071 22.5831 0.49525C22.8514 0.765429 23.0013 1.13111 23 1.51186C22.9987 1.8926 22.8461 2.25721 22.5759 2.52548C22.3058 2.79375 21.9401 2.94371 21.5593 2.94236L1.46105 2.87119C1.0803 2.86984 0.715692 2.7173 0.447419 2.44712C0.179147 2.17694 0.0291905 1.81126 0.0305387 1.43052Z" fill="#070648"/>
<path d="M1.44069 8.61355C1.05995 8.61221 0.694263 8.76216 0.424084 9.03044C0.153905 9.29871 0.00136265 9.66332 1.43836e-05 10.0441C-0.00133388 10.4248 0.148623 10.7905 0.416895 11.0607C0.685167 11.3308 1.04978 11.4834 1.43052 11.4847L12.9153 11.5254C13.296 11.5268 13.6617 11.3768 13.9319 11.1085C14.202 10.8403 14.3546 10.4756 14.3559 10.0949C14.3573 9.71416 14.2073 9.34847 13.939 9.07829C13.6708 8.80811 13.3062 8.65557 12.9254 8.65422L1.44069 8.61355Z" fill="#070648"/>
</svg>
