<svg width="19" height="19" viewBox="0 0 19 19" fill="none" xmlns="http://www.w3.org/2000/svg">
<path fill-rule="evenodd" clip-rule="evenodd" d="M2.27886 4.65395C2.72426 4.20856 3.32835 3.95833 3.95824 3.95833H13.4582C14.0881 3.95833 14.6922 4.20856 15.1376 4.65395C15.583 5.09935 15.8332 5.70344 15.8332 6.33333V6.46916C16.1641 6.58614 16.4681 6.77609 16.721 7.02895C17.1664 7.47435 17.4166 8.07844 17.4166 8.70833V10.2917C17.4166 10.9216 17.1664 11.5256 16.721 11.971C16.4681 12.2239 16.1641 12.4139 15.8332 12.5308V12.6667C15.8332 13.2966 15.583 13.9006 15.1376 14.346C14.6922 14.7914 14.0881 15.0417 13.4582 15.0417H3.95824C3.32835 15.0417 2.72426 14.7914 2.27886 14.346C1.83346 13.9006 1.58324 13.2966 1.58324 12.6667V6.33333C1.58324 5.70344 1.83346 5.09935 2.27886 4.65395ZM3.95824 5.54167C3.74828 5.54167 3.54691 5.62507 3.39845 5.77354C3.24998 5.92201 3.16657 6.12337 3.16657 6.33333V12.6667C3.16657 12.8766 3.24998 13.078 3.39845 13.2265C3.54691 13.3749 3.74828 13.4583 3.95824 13.4583H13.4582C13.6682 13.4583 13.8696 13.3749 14.018 13.2265C14.1665 13.078 14.2499 12.8766 14.2499 12.6667V11.875C14.2499 11.4378 14.6043 11.0833 15.0416 11.0833C15.2515 11.0833 15.4529 10.9999 15.6014 10.8515C15.7498 10.703 15.8332 10.5016 15.8332 10.2917V8.70833C15.8332 8.49837 15.7498 8.29701 15.6014 8.14854C15.4529 8.00007 15.2515 7.91667 15.0416 7.91667C14.6043 7.91667 14.2499 7.56223 14.2499 7.125V6.33333C14.2499 6.12337 14.1665 5.92201 14.018 5.77354C13.8696 5.62507 13.6682 5.54167 13.4582 5.54167H3.95824Z" fill="black"/>
<path d="M4.30667 6.96667C4.30667 6.68684 4.53351 6.46 4.81333 6.46H11.4C11.6798 6.46 11.9067 6.68684 11.9067 6.96667V12.0333C11.9067 12.3132 11.6798 12.54 11.4 12.54H4.81333C4.53351 12.54 4.30667 12.3132 4.30667 12.0333V6.96667Z" fill="black"/>
</svg>
