<svg width="40" height="35" viewBox="0 0 40 35" fill="none" xmlns="http://www.w3.org/2000/svg">
<path d="M7.49892 10.2512C8.02473 10.1094 8.60567 10.272 8.93717 10.6709C9.3055 11.114 9.26192 11.7237 8.83335 12.1232L7.65944 12.8841C7.10321 13.2884 6.77962 13.8872 6.77538 14.5199V26.1232C6.79125 28.0133 8.54272 29.5402 10.7029 29.5471H17.3696V29.5725C18.09 29.5725 18.6739 30.0835 18.6739 30.7138C18.6739 31.3441 18.09 31.8551 17.3696 31.8551H10.7029C7.09636 31.8481 4.17466 29.2916 4.16669 26.1359V14.5199C4.18975 13.1777 4.90981 11.9175 6.12321 11.096L7.32611 10.3098L7.49892 10.2512ZM16.0363 4.08335C18.2369 2.53553 21.3718 2.53553 23.5725 4.08335L33.587 11.0707C34.7736 11.9058 35.4703 13.1622 35.4855 14.4946L35.471 26.1232C35.471 29.2818 32.5447 31.8424 28.9348 31.8424H26.0363C24.289 31.8424 22.8703 30.6067 22.8623 29.0779V23.8279L22.8488 23.6957C22.7776 23.3526 22.4344 23.0924 22.0218 23.0924H17.6739C17.4485 23.0924 17.2324 23.1716 17.0744 23.3123C16.9163 23.453 16.8295 23.6433 16.8334 23.8406V25.8442C16.8334 26.4745 16.2494 26.9855 15.529 26.9855C14.8086 26.9855 14.2247 26.4745 14.2247 25.8442V23.8406C14.2247 23.0368 14.5896 22.2659 15.2392 21.6975C15.8888 21.1291 16.7698 20.8098 17.6884 20.8098H22.0363C23.9436 20.8168 25.4855 22.1717 25.4855 23.8406V29.0779C25.4855 29.344 25.7321 29.5598 26.0363 29.5598H29.0073C31.1684 29.5598 32.9203 28.0269 32.9203 26.1359V14.5199C32.9097 13.8764 32.5692 13.2712 31.9928 12.8714L21.9783 5.88407C20.7155 4.97437 18.8933 4.97437 17.6305 5.88407L14.4131 7.98914C13.8168 8.36384 12.9862 8.24461 12.558 7.72284C12.1298 7.20107 12.266 6.47434 12.8623 6.09965L16.0363 4.08335Z" fill="black"/>
</svg>
